<?xml version="1.0" encoding="UTF-8" standalone="no"?>
<!-- Generated by IcoMoon.io -->

<svg
   xmlns:dc="http://purl.org/dc/elements/1.1/"
   xmlns:cc="http://creativecommons.org/ns#"
   xmlns:rdf="http://www.w3.org/1999/02/22-rdf-syntax-ns#"
   xmlns:svg="http://www.w3.org/2000/svg"
   xmlns="http://www.w3.org/2000/svg"
   xmlns:sodipodi="http://sodipodi.sourceforge.net/DTD/sodipodi-0.dtd"
   xmlns:inkscape="http://www.inkscape.org/namespaces/inkscape"
   version="1.1"
   width="150"
   height="150"
   viewBox="0 0 150 150"
   id="svg2"
   inkscape:version="0.91 r13725"
   sodipodi:docname="github.svg">
  <metadata
     id="metadata10">
    <rdf:RDF>
      <cc:Work
         rdf:about="">
        <dc:format>image/svg+xml</dc:format>
        <dc:type
           rdf:resource="http://purl.org/dc/dcmitype/StillImage" />
        <dc:title></dc:title>
      </cc:Work>
    </rdf:RDF>
  </metadata>
  <defs
     id="defs8" />
  <sodipodi:namedview
     pagecolor="#000000"
     bordercolor="#ffffff"
     borderopacity="1"
     objecttolerance="10"
     gridtolerance="10"
     guidetolerance="10"
     inkscape:pageopacity="0"
     inkscape:pageshadow="2"
     inkscape:window-width="1920"
     inkscape:window-height="1013"
     id="namedview6"
     showgrid="false"
     fit-margin-top="0"
     fit-margin-left="0"
     fit-margin-right="0"
     fit-margin-bottom="0"
     inkscape:zoom="2.6074563"
     inkscape:cx="42.606482"
     inkscape:cy="53.271432"
     inkscape:window-x="0"
     inkscape:window-y="24"
     inkscape:window-maximized="1"
     inkscape:current-layer="svg2" />
  <path
     d="M 75.003343,0 C 33.580693,0 0,34.426512 0,76.892504 c 0,33.974166 21.48683,62.794286 51.296965,72.958436 3.750501,0.70594 5.121005,-1.67232 5.121005,-3.70104 0,-1.82995 -0.06685,-7.89555 -0.106966,-14.31068 -20.858403,4.64686 -25.264073,-9.06754 -25.264073,-9.06754 -3.416232,-8.8825 -8.32999,-11.24705 -8.32999,-11.24705 -6.819094,-4.77023 0.514774,-4.67427 0.514774,-4.67427 7.527745,0.53459 11.498864,7.92296 11.498864,7.92296 6.692071,11.75422 17.562508,8.35475 21.827784,6.38086 0.68191,-4.95527 2.620672,-8.35475 4.759995,-10.26695 -16.64661,-1.93962 -34.162321,-8.5398 -34.162321,-38.004185 0,-8.402729 2.928199,-15.24965 7.714935,-20.636718 -0.762134,-1.953326 -3.349378,-9.773483 0.742078,-20.355712 0,0 6.290948,-2.062987 20.624415,7.881841 5.976735,-1.713444 12.394705,-2.556458 18.765878,-2.583873 6.371172,0.02742 12.789143,0.884137 18.779248,2.597581 14.306729,-9.958536 20.611049,-7.881842 20.611049,-7.881842 4.09814,10.589083 1.51758,18.402387 0.74876,20.348859 4.80679,5.380214 7.70825,12.233989 7.70825,20.636718 0,29.539771 -17.54245,36.044001 -34.249233,37.949351 2.700896,2.38512 5.087579,7.05939 5.087579,14.22844 0,10.28066 -0.100281,18.56688 -0.100281,21.10277 0,2.04928 1.363819,4.44125 5.161115,3.68734 C 128.53323,139.67309 150,110.85981 150,76.899357 150,34.440219 116.41931,0.00685 74.996657,0.00685 Z"
     id="path4"
     inkscape:connector-curvature="0"
     style="fill:#ffffff;fill-opacity:1" />
</svg>
