<?xml version="1.0" encoding="UTF-8" standalone="no"?>
<svg
   xmlns:dc="http://purl.org/dc/elements/1.1/"
   xmlns:cc="http://creativecommons.org/ns#"
   xmlns:rdf="http://www.w3.org/1999/02/22-rdf-syntax-ns#"
   xmlns:svg="http://www.w3.org/2000/svg"
   xmlns="http://www.w3.org/2000/svg"
   xmlns:sodipodi="http://sodipodi.sourceforge.net/DTD/sodipodi-0.dtd"
   xmlns:inkscape="http://www.inkscape.org/namespaces/inkscape"
   viewBox="0 0 150 150"
   id="svg2"
   version="1.1"
   inkscape:version="0.91 r13725"
   sodipodi:docname="globe.svg"
   width="150"
   height="150">
  <metadata
     id="metadata10">
    <rdf:RDF>
      <cc:Work
         rdf:about="">
        <dc:format>image/svg+xml</dc:format>
        <dc:type
           rdf:resource="http://purl.org/dc/dcmitype/StillImage" />
        <dc:title></dc:title>
      </cc:Work>
    </rdf:RDF>
  </metadata>
  <defs
     id="defs8" />
  <sodipodi:namedview
     pagecolor="#000000"
     bordercolor="#666666"
     borderopacity="1"
     objecttolerance="10"
     gridtolerance="10"
     guidetolerance="10"
     inkscape:pageopacity="0"
     inkscape:pageshadow="2"
     inkscape:window-width="1920"
     inkscape:window-height="1013"
     id="namedview6"
     showgrid="false"
     fit-margin-top="0"
     fit-margin-left="0"
     fit-margin-right="0"
     fit-margin-bottom="0"
     inkscape:zoom="1"
     inkscape:cx="283.84778"
     inkscape:cy="98.508882"
     inkscape:window-x="0"
     inkscape:window-y="24"
     inkscape:window-maximized="1"
     inkscape:current-layer="svg2" />
  <path
     d="M 74.999999,0 Q 90.104169,0 103.97135,5.9895801 117.83854,11.97917 127.92969,22.07031 138.02083,32.16146 144.01042,46.02865 150,59.89583 150,75 q 0,15.10417 -5.98958,28.97135 -5.98959,13.86719 -16.08073,23.95834 -10.09115,10.09114 -23.95834,16.08073 Q 90.104169,150 74.999999,150 59.895829,150 46.028649,144.01042 32.161459,138.02083 22.070309,127.92969 11.979169,117.83854 5.98958,103.97135 0,90.10417 0,75 0,59.89583 5.98958,46.02865 11.979169,32.16146 22.070309,22.07031 32.161459,11.97917 46.028649,5.9895801 59.895829,0 74.999999,0 Z m 3.51562,9.7656302 q -1.95312,1.5624998 -4.7526,2.6692698 -2.79948,1.10677 -4.6224,1.5625 -1.82291,0.45573 -5.59895,1.04166 -3.77605,0.58594 -5.07813,0.84636 -1.95312,0.39062 -5.92448,0 -3.97135,-0.39063 -5.92448,0.26041 -2.60416,0.91146 -6.70573,3.45052 -4.10156,2.53907 -4.49218,4.49219 -0.39063,1.43229 0.84635,2.92969 1.23698,1.4974 1.10677,2.40885 -0.39062,4.42709 -3.58073,11.84896 -3.1901,7.42188 -3.84114,10.28646 -1.17188,4.42708 0.65104,12.10938 1.82291,7.68229 1.04166,11.32812 0,1.17188 2.21355,5.79427 2.21354,4.6224 2.08333,7.7474 1.5625,0 2.99479,0.65104 1.43229,0.65104 3.0599,1.95312 1.6276,1.30209 2.53906,1.82292 2.08333,1.04167 4.29687,1.95313 2.21355,0.91145 5.27344,1.95312 3.0599,1.041672 4.49219,1.562502 2.73437,1.17188 6.83594,4.166668 4.10156,2.99479 7.8125,4.94791 3.71093,1.95313 7.48698,1.4323 0.91145,1.95312 -0.39063,4.42708 -1.30208,2.47396 -2.92969,5.20833 -1.6276,2.73438 -1.23698,4.94792 1.69271,2.73437 2.9948,4.49219 1.30208,1.75781 3.58073,3.58073 2.27864,1.82291 4.7526,2.34375 0,0.91145 -0.45573,2.08333 -0.45573,1.17187 -0.45573,1.82292 0,0.65104 0.65104,2.21354 13.541671,0.26041 28.776041,-14.58334 3.90625,-3.77604 6.05469,-6.11979 2.14844,-2.34375 4.49219,-6.38021 2.34375,-4.03645 2.73437,-8.20312 -1.6927,-1.04167 -4.8177,-1.10677 -3.125,-0.0651 -4.6875,-0.97656 -1.95313,-0.91146 -6.44532,-1.95313 -4.49218,-1.041668 -6.70573,-2.473958 -2.34375,0 -5.33854,0.0651 -2.994794,0.0651 -5.598961,0.19531 -2.60416,0.13021 -5.46875,0.84635 -2.86458,0.716148 -4.94791,2.148438 -6.64063,4.55729 -8.59375,1.5625 -0.52084,-0.13021 -0.45573,-3.320308 0.0651,-3.190112 0.0651,-3.320312 -0.78125,-1.69271 -3.45052,-2.27865 -2.66927,-0.58594 -3.1901,-0.84635 0.13021,-1.95313 -0.0651,-3.97136 -0.19531,-2.01823 -0.91145,-3.64583 -0.71615,-1.62761 -2.40886,-1.4974 -1.69271,0.13021 -4.03646,2.73438 -2.99479,3.25521 -5.46875,-0.52084 -2.47396,-3.64583 -1.04166,-7.55208 0.78125,-2.08333 2.86458,-2.86458 0.78125,0.13021 3.38542,0.19531 2.60416,0.0651 4.36198,0.52083 1.75781,0.45573 2.53906,1.75782 0.91146,1.5625 2.34375,3.125 1.43229,1.5625 2.79948,2.66927 1.36718,1.10677 2.60416,1.95312 1.23698,0.84636 2.01823,1.36719 l 0.65104,0.39062 q 0.26042,-1.5625 0.97657,-3.97135 0.71614,-2.40885 1.04166,-4.49219 0.32552,-2.08333 -0.0651,-4.16666 -0.39063,-2.34375 0.45573,-3.77605 0.84635,-1.43229 2.34375,-2.92968 1.49739,-1.4974 2.01823,-3.19011 0.78125,-1.82291 1.36719,-4.55729 0.58593,-2.73437 1.04166,-4.03646 0.45573,-1.30208 2.01823,-2.92969 1.5625,-1.6276 4.42708,-2.92968 -0.78125,-2.34375 1.302087,-4.6875 1.04166,0 3.125,0.19531 2.083334,0.19531 3.190104,0.19531 1.10677,0 2.60417,-0.58594 1.49739,-0.58593 2.66927,-2.01822 -1.30208,-2.9948 -4.03646,-5.53386 -2.73437,-2.53906 -4.882814,-3.84114 -2.14844,-1.30209 -6.380207,-3.51563 -4.23177,-2.21354 -5.66406,-2.99479 0,-0.13021 0.26041,-1.04167 0.26042,-0.91146 0.39063,-1.49739 0.13021,-0.58594 0.19531,-1.36719 0.0651,-0.78125 -0.13021,-1.23698 -0.19531,-0.45573 -0.58593,-0.58594 4.03645,1.69271 7.61718,1.88802 3.580727,0.19532 5.013017,-0.32552 l 1.562504,-0.65104 q 0.65105,-3.64583 -1.236974,-5.98958 -1.88803,-2.34375 -4.752607,-3.125 -2.86458,-0.78125 -6.51042,-1.95313 -3.64583,-1.17187 -5.33854,-2.60416 -2.34375,0.52083 -4.81771,0 z M 76.692709,23.69792 q 0,2.21354 1.04166,5.46875 1.04167,3.25521 2.21355,5.85937 1.17187,2.60417 1.17187,2.99479 -1.04167,-0.1302 -5.14323,-0.71614 -4.10156,-0.58594 -6.83594,-1.30209 -2.73437,-0.71614 -4.8177,-2.14843 0.39062,-1.43229 2.08333,-3.84115 1.69271,-2.40885 2.08333,-3.32031 1.30209,1.30208 2.47396,1.30208 1.17188,0 1.82292,-0.78125 0.65104,-0.78125 1.75781,-1.88802 1.10677,-1.10677 2.14844,-1.6276 z"
     id="path4"
     inkscape:connector-curvature="0"
     style="fill:#ffffff;fill-opacity:1" />
</svg>
