<?xml version="1.0" encoding="UTF-8" standalone="no"?>
<!-- Generated by IcoMoon.io -->

<svg
   xmlns:dc="http://purl.org/dc/elements/1.1/"
   xmlns:cc="http://creativecommons.org/ns#"
   xmlns:rdf="http://www.w3.org/1999/02/22-rdf-syntax-ns#"
   xmlns:svg="http://www.w3.org/2000/svg"
   xmlns="http://www.w3.org/2000/svg"
   xmlns:sodipodi="http://sodipodi.sourceforge.net/DTD/sodipodi-0.dtd"
   xmlns:inkscape="http://www.inkscape.org/namespaces/inkscape"
   version="1.1"
   width="150"
   height="75"
   viewBox="0 0 150 75"
   id="svg2"
   inkscape:version="0.91 r13725"
   sodipodi:docname="npm.svg">
  <metadata
     id="metadata10">
    <rdf:RDF>
      <cc:Work
         rdf:about="">
        <dc:format>image/svg+xml</dc:format>
        <dc:type
           rdf:resource="http://purl.org/dc/dcmitype/StillImage" />
        <dc:title></dc:title>
      </cc:Work>
    </rdf:RDF>
  </metadata>
  <defs
     id="defs8" />
  <sodipodi:namedview
     pagecolor="#000000"
     bordercolor="#ffffff"
     borderopacity="1"
     objecttolerance="10"
     gridtolerance="10"
     guidetolerance="10"
     inkscape:pageopacity="1"
     inkscape:pageshadow="2"
     inkscape:window-width="1920"
     inkscape:window-height="1013"
     id="namedview6"
     showgrid="false"
     fit-margin-top="0"
     fit-margin-left="0"
     fit-margin-right="0"
     fit-margin-bottom="0"
     inkscape:zoom="3.6875"
     inkscape:cx="-25.272641"
     inkscape:cy="48.332615"
     inkscape:window-x="0"
     inkscape:window-y="24"
     inkscape:window-maximized="1"
     inkscape:current-layer="svg2" />
  <path
     d="m 0,33.288556 0,25.101241 41.784382,0 0,8.418101 33.366283,0 0,-8.418101 74.849335,0 0,-50.1976955 -149.99521699,0 0,25.1012345 z m 41.779599,0 0,16.683141 -8.418099,0 0,-24.94818 -8.116769,0 0,24.94818 -17.1327448,0 0,-33.366279 33.6676128,0 0,16.683139 z m 41.726986,0.0287 -0.09088,16.683141 -16.381811,-0.0574 0,8.44679 -17.132745,0 0,-41.784377 33.667613,0 -0.0574,16.711837 z m 58.371865,-0.0287 0,16.683141 -8.4181,0 0,-24.94818 -8.4181,0 0,25.10124 -8.4181,-0.181759 0,-24.91948 -8.11677,0 0,24.94818 -16.831413,0 0,-33.366279 50.197693,0 0,16.683139 z m -74.844554,0 0,8.265041 7.815439,0 0,-16.53486 -7.815439,0 0,8.26504 z"
     id="path4"
     inkscape:connector-curvature="0"
     style="fill:#ffffff;stroke:#fffff0;stroke-opacity:0;fill-rule:evenodd;fill-opacity:1" />
</svg>
